<svg width="180" height="148" xmlns="http://www.w3.org/2000/svg" xmlns:xlink="http://www.w3.org/1999/xlink"><svg width="148" height="48" fill="none" viewBox="-4 -4 148 48" id="app-store" xmlns="http://www.w3.org/2000/svg"><path d="M139.222 35.387c0 2.132-1.782 3.858-3.986 3.858H4.77c-2.204 0-3.992-1.726-3.992-3.858V4.618C.778 2.488 2.566.755 4.77.755h130.464c2.206 0 3.987 1.732 3.987 3.863l.001 30.769z" fill="#fff"/><path d="M134.815.801c2.401 0 4.354 1.884 4.354 4.199v30c0 2.315-1.953 4.199-4.354 4.199H5.185c-2.4 0-4.354-1.884-4.354-4.199V5C.83 2.685 2.784.801 5.185.801h129.63zm0-.801H5.185C2.335 0 0 2.251 0 5v30c0 2.749 2.335 5 5.185 5h129.63c2.85 0 5.185-2.251 5.185-5V5c0-2.749-2.335-5-5.185-5z" fill="#A6A6A6"/><path d="M31.244 19.784c-.03-3.223 2.737-4.791 2.863-4.864-1.567-2.203-3.996-2.504-4.85-2.528-2.039-.207-4.018 1.177-5.057 1.177-1.06 0-2.66-1.157-4.384-1.123-2.22.033-4.296 1.272-5.434 3.196-2.35 3.923-.598 9.688 1.654 12.859 1.126 1.553 2.442 3.287 4.165 3.226 1.685-.067 2.314-1.036 4.348-1.036 2.015 0 2.606 1.036 4.363.997 1.808-.028 2.947-1.56 4.034-3.127 1.301-1.78 1.824-3.533 1.845-3.623-.043-.014-3.513-1.291-3.547-5.154zm-3.319-9.478c.907-1.093 1.527-2.58 1.355-4.089-1.312.056-2.953.875-3.898 1.944-.835.942-1.582 2.486-1.39 3.938 1.474.106 2.988-.717 3.933-1.793zm22.942-.297c0 1.177-.366 2.063-1.097 2.658-.678.549-1.64.824-2.887.824a13.88 13.88 0 01-1.59-.078V6.982c.578-.09 1.2-.136 1.873-.136 1.187 0 2.082.249 2.685.747.677.563 1.016 1.368 1.016 2.416zm-1.146.029c0-.763-.21-1.348-.629-1.756-.419-.407-1.03-.611-1.836-.611-.343 0-.634.022-.876.068v4.889c.134.02.379.029.735.029.831 0 1.473-.223 1.925-.669.453-.446.68-1.096.68-1.95zm7.222.999c0 .725-.215 1.319-.644 1.785-.45.479-1.047.718-1.791.718-.718 0-1.29-.229-1.716-.689-.425-.459-.637-1.038-.637-1.736 0-.73.218-1.329.658-1.794.44-.465 1.031-.698 1.776-.698.717 0 1.294.229 1.73.688.415.446.624 1.022.624 1.726zm-1.128.034c0-.435-.097-.808-.291-1.119-.228-.376-.553-.564-.975-.564-.436 0-.768.188-.996.564-.195.311-.292.69-.292 1.138 0 .435.098.808.292 1.119.235.376.563.564.986.564.415 0 .74-.191.975-.574.2-.317.301-.693.301-1.128zm9.275-2.352l-1.53 4.714h-.995l-.634-2.047a14.873 14.873 0 01-.393-1.523h-.02a10.827 10.827 0 01-.393 1.523l-.673 2.047h-1.007l-1.438-4.714h1.117l.552 2.241c.134.53.244 1.035.332 1.513h.02c.08-.394.215-.896.403-1.503l.694-2.25h.886l.664 2.202c.161.537.292 1.054.392 1.552h.03a14.52 14.52 0 01.332-1.552l.593-2.202h1.068v-.001zm5.634 4.714h-1.087v-2.7c0-.832-.328-1.248-.985-1.248a.996.996 0 00-.785.343c-.2.229-.302.499-.302.808v2.796h-1.087v-3.366c0-.414-.013-.863-.04-1.349h.956l.05.737h.03a1.54 1.54 0 01.564-.569c.294-.176.624-.265.985-.265.456 0 .836.142 1.138.427.375.349.563.87.563 1.562v2.824zm2.996 0h-1.085V6.556h1.086v6.877zm6.4-2.396c0 .725-.215 1.319-.645 1.785-.45.479-1.047.718-1.79.718-.72 0-1.29-.229-1.716-.689-.425-.459-.638-1.038-.638-1.736 0-.73.22-1.329.659-1.794.44-.465 1.03-.698 1.774-.698.719 0 1.294.229 1.732.688.415.446.623 1.022.623 1.726zm-1.129.034c0-.435-.097-.808-.291-1.119-.227-.376-.553-.564-.974-.564-.438 0-.77.188-.997.564-.195.311-.291.69-.291 1.138 0 .435.097.808.291 1.119.236.376.564.564.987.564.414 0 .739-.191.973-.574.203-.317.302-.693.302-1.128zm6.389 2.362h-.977l-.08-.543h-.03c-.335.433-.81.65-1.428.65-.462 0-.835-.143-1.116-.427a1.313 1.313 0 01-.383-.96c0-.576.249-1.015.75-1.319.5-.304 1.203-.453 2.108-.446V10.3c0-.621-.338-.931-1.015-.931-.483 0-.908.117-1.275.349l-.22-.688c.454-.271 1.015-.407 1.676-.407 1.278 0 1.919.65 1.919 1.95v1.736c0 .471.024.846.07 1.124zm-1.129-1.62v-.727c-1.199-.02-1.798.297-1.798.95 0 .246.068.43.208.553.14.123.319.184.531.184.239 0 .462-.073.665-.218a.89.89 0 00.394-.742zm7.304 1.62h-.965l-.05-.757h-.03c-.309.576-.833.864-1.57.864-.59 0-1.08-.223-1.469-.669-.389-.446-.583-1.025-.583-1.736 0-.763.21-1.381.634-1.853.41-.44.911-.66 1.509-.66.656 0 1.115.213 1.377.64h.02V6.556h1.088v5.607c0 .459.013.882.039 1.27zm-1.126-1.988v-.786c0-.136-.01-.246-.03-.33a1.185 1.185 0 00-.394-.635 1.092 1.092 0 00-.727-.257c-.405 0-.722.155-.956.466-.23.311-.348.708-.348 1.193 0 .466.11.844.334 1.135.235.31.553.465.95.465.357 0 .642-.129.859-.388.209-.239.312-.527.312-.863zm10.421-.408c0 .725-.215 1.319-.644 1.785-.45.479-1.046.718-1.791.718-.717 0-1.288-.229-1.715-.689-.426-.459-.638-1.038-.638-1.736 0-.73.219-1.329.658-1.794.44-.465 1.031-.698 1.777-.698.716 0 1.294.229 1.73.688.414.446.623 1.022.623 1.726zm-1.126.034c0-.435-.098-.808-.292-1.119-.229-.376-.553-.564-.976-.564-.435 0-.767.188-.996.564-.195.311-.292.69-.292 1.138 0 .435.098.808.292 1.119.235.376.563.564.986.564.415 0 .741-.191.976-.574.2-.317.302-.693.302-1.128zm6.969 2.362h-1.085v-2.7c0-.832-.328-1.248-.987-1.248a.995.995 0 00-.784.343 1.186 1.186 0 00-.301.808v2.796h-1.088v-3.366c0-.414-.013-.863-.038-1.349h.954l.05.737h.03a1.56 1.56 0 01.564-.569 1.89 1.89 0 01.986-.265c.455 0 .835.142 1.136.427.377.349.563.87.563 1.562v2.824zm7.315-3.929h-1.197v2.29c0 .582.213.873.634.873.195 0 .356-.016.484-.049l.028.795c-.215.078-.497.117-.844.117-.43 0-.764-.126-1.005-.378-.243-.252-.363-.676-.363-1.271V9.504h-.715v-.785h.715v-.864l1.065-.31v1.173h1.197v.786h.001zm5.753 3.929h-1.088v-2.68c0-.845-.327-1.268-.984-1.268-.504 0-.848.245-1.037.735a1.277 1.277 0 00-.051.377v2.835h-1.085V6.556h1.085v2.841h.021c.342-.517.833-.775 1.469-.775.45 0 .822.142 1.117.427.369.355.553.883.553 1.581v2.803zm5.935-2.58c0 .188-.014.346-.04.475h-3.26c.015.466.17.821.472 1.067.276.22.632.33 1.067.33a3.72 3.72 0 001.318-.223l.17.728c-.463.194-1.009.291-1.64.291-.757 0-1.354-.215-1.785-.645-.433-.43-.648-1.007-.648-1.731 0-.711.2-1.303.603-1.775.422-.504.991-.756 1.71-.756.703 0 1.237.252 1.598.756.291.4.435.895.435 1.483zm-1.037-.271a1.376 1.376 0 00-.21-.805c-.189-.291-.476-.437-.865-.437-.355 0-.644.142-.865.427a1.556 1.556 0 00-.323.815h2.263zM55.632 31.504h-2.355l-1.29-3.909h-4.485l-1.228 3.909H43.98l4.442-13.308h2.744l4.465 13.308zm-4.034-5.549L50.43 22.48c-.123-.355-.355-1.191-.696-2.507h-.041a94.267 94.267 0 01-.656 2.507l-1.146 3.475h3.706zm15.459.633c0 1.632-.457 2.922-1.372 3.869-.82.843-1.837 1.264-3.051 1.264-1.31 0-2.252-.454-2.826-1.362h-.041v5.055h-2.211V25.067c0-1.026-.028-2.079-.082-3.159h1.944l.123 1.521h.042c.737-1.146 1.856-1.718 3.358-1.718 1.174 0 2.154.447 2.938 1.342.786.896 1.178 2.074 1.178 3.535zm-2.253.078c0-.934-.217-1.704-.655-2.31-.478-.632-1.12-.948-1.925-.948-.545 0-1.04.176-1.484.523-.444.35-.734.807-.87 1.373a2.7 2.7 0 00-.102.65v1.6c0 .698.221 1.287.665 1.768.444.481 1.02.721 1.73.721.833 0 1.481-.31 1.945-.928.464-.619.696-1.435.696-2.449zm13.699-.078c0 1.632-.458 2.922-1.373 3.869-.819.843-1.836 1.264-3.05 1.264-1.311 0-2.253-.454-2.825-1.362h-.042v5.055h-2.21V25.067c0-1.026-.029-2.079-.083-3.159h1.945l.123 1.521h.042c.736-1.146 1.855-1.718 3.358-1.718 1.173 0 2.153.447 2.939 1.342.783.896 1.176 2.074 1.176 3.535zm-2.253.078c0-.934-.219-1.704-.656-2.31-.478-.632-1.118-.948-1.924-.948-.546 0-1.041.176-1.485.523-.444.35-.733.807-.869 1.373-.067.264-.103.48-.103.65v1.6c0 .698.222 1.287.664 1.768.444.48 1.02.721 1.732.721.833 0 1.48-.31 1.944-.928.465-.619.697-1.435.697-2.449zm15.05 1.106c0 1.132-.408 2.053-1.226 2.764-.9.777-2.15 1.165-3.76 1.165-1.484 0-2.675-.276-3.576-.829l.512-1.777a6.23 6.23 0 003.196.85c.833 0 1.481-.182 1.947-.544.463-.362.695-.848.695-1.454 0-.54-.191-.995-.574-1.364-.38-.369-1.016-.712-1.904-1.029-2.416-.869-3.623-2.142-3.623-3.816 0-1.094.423-1.991 1.27-2.689.844-.699 1.97-1.048 3.379-1.048 1.256 0 2.299.211 3.132.632l-.553 1.738c-.778-.408-1.657-.612-2.641-.612-.778 0-1.386.185-1.821.553-.368.329-.553.73-.553 1.205 0 .526.21.961.633 1.303.369.316 1.038.658 2.008 1.027 1.188.461 2.06 1 2.62 1.618.56.616.839 1.387.839 2.307zm7.31-4.264h-2.437v4.659c0 1.185.43 1.777 1.29 1.777.395 0 .723-.033.982-.099l.061 1.619c-.436.157-1.009.236-1.72.236-.873 0-1.555-.257-2.047-.77-.491-.514-.738-1.376-.738-2.587v-4.837H92.55v-1.6h1.452v-1.757l2.172-.632v2.389h2.437v1.602zm10.995 3.119c0 1.475-.437 2.686-1.31 3.633-.916.975-2.131 1.461-3.647 1.461-1.46 0-2.622-.467-3.489-1.401-.867-.934-1.3-2.113-1.3-3.534 0-1.487.445-2.705 1.34-3.652.893-.948 2.098-1.422 3.613-1.422 1.46 0 2.635.467 3.522 1.402.848.907 1.271 2.078 1.271 3.513zm-2.293.069c0-.885-.196-1.644-.594-2.277-.463-.766-1.126-1.148-1.985-1.148-.888 0-1.563.383-2.027 1.148-.397.634-.593 1.405-.593 2.317 0 .885.196 1.644.593 2.276.478.766 1.146 1.148 2.008 1.148.844 0 1.507-.39 1.985-1.168.407-.645.613-1.412.613-2.296zm9.48-2.913a3.978 3.978 0 00-.697-.059c-.778 0-1.379.283-1.802.85-.368.5-.553 1.132-.553 1.895v5.035h-2.21l.021-6.574c0-1.106-.028-2.113-.083-3.021h1.926l.081 1.836h.061a3.282 3.282 0 011.105-1.52 2.741 2.741 0 011.598-.514c.205 0 .389.014.553.039v2.033zm9.888 2.469c0 .382-.026.704-.081.967h-6.632c.025.948.346 1.673.962 2.173.559.447 1.282.671 2.169.671.982 0 1.878-.151 2.684-.454l.347 1.48c-.942.396-2.054.593-3.337.593-1.543 0-2.754-.438-3.635-1.313-.88-.875-1.321-2.05-1.321-3.524 0-1.447.41-2.652 1.23-3.613.859-1.026 2.019-1.539 3.48-1.539 1.434 0 2.52.513 3.257 1.539.584.815.877 1.823.877 3.02zm-2.108-.553c.015-.632-.13-1.178-.429-1.639-.383-.593-.971-.889-1.762-.889-.723 0-1.311.289-1.76.869-.368.461-.587 1.014-.654 1.658h4.605v.001z" fill="#000"/></svg><svg width="26" height="26" fill="none" viewBox="-4 -4 26 26" id="arrow" x="148" y="64" xmlns="http://www.w3.org/2000/svg"><path d="M3.246 11.046l-.353.354.707.707.354-.353-.708-.708zM9 6l.354-.354L9 5.293l-.354.353L9 6zm5.046 5.754l.354.353.707-.707-.353-.354-.708.708zm-10.092 0l5.4-5.4-.708-.708-5.4 5.4.708.708zm4.692-5.4l5.4 5.4.708-.708-5.4-5.4-.708.708z" fill="#0A0F18"/></svg><svg width="32" height="32" fill="none" viewBox="-4 -4 32 32" id="back" x="148" xmlns="http://www.w3.org/2000/svg"><path d="M15 20l-8-8 8-8" stroke="#0A0F18" stroke-width="1.2" stroke-linecap="square"/></svg><svg width="120" height="26" fill="none" viewBox="-4 -4 120 26" id="copyright" y="96" xmlns="http://www.w3.org/2000/svg"><path fill-rule="evenodd" clip-rule="evenodd" d="M5.89 3.79c2.814 0 5.103 2.305 5.103 5.138 0 2.833-2.29 5.138-5.104 5.138S.785 11.761.785 8.928c0-2.833 2.29-5.138 5.104-5.138zm0-.79C2.636 3 0 5.654 0 8.928s2.637 5.929 5.89 5.929c3.252 0 5.888-2.654 5.888-5.929C11.778 5.654 9.142 3 5.89 3zm.241 8.79c-.403 0-.777-.074-1.123-.221a2.76 2.76 0 01-.895-.605 2.762 2.762 0 01-.59-.905 2.943 2.943 0 01-.21-1.115v-.016a2.869 2.869 0 01.8-2.02c.251-.26.552-.466.903-.615.35-.15.738-.226 1.162-.226.257 0 .49.021.703.063.212.043.404.1.577.174.172.074.333.164.48.269.146.105.282.221.407.348l-.769.893a2.923 2.923 0 00-.656-.458 1.664 1.664 0 00-.75-.166 1.52 1.52 0 00-1.146.505 1.728 1.728 0 00-.33.55c-.078.208-.118.43-.118.668v.015c0 .238.04.462.118.672.079.211.187.396.326.554a1.513 1.513 0 001.15.514c.314 0 .58-.058.798-.174a3.1 3.1 0 00.647-.475l.77.783c-.141.153-.288.29-.44.41a2.575 2.575 0 01-1.092.51 3.54 3.54 0 01-.722.068zm19.055-6.926h-1.372L20.907 9.59 18.01 4.864h-1.37v8.129h1.153v-6.41l2.584 4.215h1.061l2.596-4.216v6.41h1.153V4.865zm6.887 4.727V4.864h1.165V9.58c0 2.218-1.257 3.53-3.15 3.53-1.891 0-3.149-1.312-3.149-3.53V4.864h1.166v4.727c0 1.474.761 2.38 1.984 2.38 1.223 0 1.984-.906 1.984-2.38zm5.224-.177c.861.32 1.358.503 1.358 1.326 0 .755-.53 1.242-1.373 1.242-.842 0-1.442-.51-1.442-1.358v-.116h-1.223c0 1.649 1.165 2.601 2.665 2.601 1.523 0 2.596-1.127 2.596-2.415 0-.662-.208-1.08-.554-1.452-.346-.372-.773-.604-1.488-.87l-.461-.175c-1.016-.383-1.339-.674-1.339-1.254 0-.662.485-1.069 1.235-1.069.738 0 1.257.407 1.257 1.15v.15h1.223c0-1.486-.934-2.426-2.48-2.426-1.685 0-2.458 1.173-2.458 2.218 0 .58.185.999.485 1.37.3.372.715.592 1.327.825l.554.209.118.044zm4.05 3.579h1.176v-8.13h-1.176v8.13zm4.118 0V6.699l4.199 6.294h1.292v-8.13h-1.154v6.33l-4.21-6.33h-1.28v8.13h1.153zm10.908-2.253c0-.823-.496-1.007-1.358-1.326l-.118-.044-.554-.21c-.611-.232-1.026-.452-1.327-.824a2.06 2.06 0 01-.484-1.37c0-1.045.773-2.218 2.457-2.218 1.546 0 2.48.94 2.48 2.427h-1.222v-.151c0-.743-.52-1.15-1.258-1.15-.75 0-1.234.407-1.234 1.069 0 .58.323.87 1.338 1.254l.461.174c.716.267 1.142.5 1.488.871.347.371.554.79.554 1.451 0 1.29-1.072 2.416-2.595 2.416-1.5 0-2.665-.952-2.665-2.601h1.223v.116c0 .848.6 1.358 1.442 1.358s1.373-.487 1.373-1.242zm4.323-1.16l1.339-3.323 1.338 3.322h-2.677zm-.461 1.148h3.599l.912 2.265h1.188l-3.265-8.13h-1.27l-3.264 8.13h1.189l.91-2.265z" fill="#cbcbcb"/><path d="M74.092 12.628c.948 0 1.68-.216 2.22-.528v-.804c-.504.252-1.104.528-2.1.528-1.848 0-2.616-1.2-2.616-3.264v-.396c0-2.136 1.08-3.048 2.604-3.048.792 0 1.392.18 2.028.432v-.792c-.492-.264-1.116-.444-1.98-.444-2.052 0-3.66 1.128-3.66 4.008v.24c0 2.724 1.332 4.068 3.504 4.068zm5.944-.024c1.608 0 2.712-1.128 2.712-3.024v-.168c0-1.884-1.02-2.976-2.7-2.976-1.608 0-2.7 1.128-2.7 3.012v.18c0 1.896 1.008 2.976 2.688 2.976zm.024-.756c-.996 0-1.776-.54-1.776-2.196v-.3c0-1.392.672-2.16 1.752-2.16.972 0 1.776.54 1.776 2.196v.3c0 1.404-.672 2.16-1.752 2.16zm3.698.948h1.044v-1.068h-1.044v1.068zm2.43 1.26h.649l.888-2.34h-1.092l-.444 2.34zm6.664-1.56h4.596v-.804h-3.636V4.444h-.96v8.052zm7.787.072c.516 0 .768-.132 1.008-.24v-.624c-.24.072-.516.108-.768.108-.684 0-.876-.228-.876-.804V7.312h1.524v-.756h-1.524V5.14h-.912v1.416h-.852v.756h.852v3.84c0 1.008.612 1.416 1.548 1.416zm4.435.036c.804 0 1.38-.252 1.74-.6h.048l.108.492h.768V3.904h-.924v2.928c-.324-.192-.828-.396-1.56-.396-1.536 0-2.652.936-2.652 3.096v.156c0 2.196 1.284 2.916 2.472 2.916zm.276-.756c-1.068 0-1.788-.528-1.788-2.196v-.24c0-1.608.684-2.196 1.812-2.196.612 0 1.164.168 1.44.384v3.744c-.3.24-.768.504-1.464.504zm3.767.948h1.044v-1.068h-1.044v1.068z" fill="#cbcbcb"/></svg><svg width="148" height="48" fill="none" viewBox="-4 -4 148 48" id="google-play" y="48" xmlns="http://www.w3.org/2000/svg"><path d="M134.815 40H5.185C2.335 40 0 37.749 0 35V5c0-2.749 2.335-5 5.185-5h129.63C137.665 0 140 2.251 140 5v30c0 2.749-2.335 5-5.185 5z" fill="#fff"/><path d="M134.815.801c2.401 0 4.354 1.884 4.354 4.199v30c0 2.315-1.953 4.199-4.354 4.199H5.185c-2.4 0-4.354-1.884-4.354-4.199V5C.83 2.685 2.784.801 5.185.801h129.63zm0-.801H5.185C2.335 0 0 2.251 0 5v30c0 2.749 2.335 5 5.185 5h129.63c2.85 0 5.185-2.251 5.185-5V5c0-2.749-2.335-5-5.185-5z" fill="#A6A6A6"/><path d="M10.044 7.539c-.305.307-.481.786-.481 1.406V31.06c0 .62.176 1.099.48 1.406l.076.068L22.97 20.146v-.292L10.12 7.466l-.075.073zm18.761 16.738l-4.28-4.13v-.293l4.285-4.131.096.053 5.074 2.784c1.448.79 1.448 2.09 0 2.885l-5.074 2.779-.101.053zm-.677.716l-4.38-4.224-12.927 12.467c.481.487 1.266.546 2.158.058l15.15-8.301zm0-9.986l-15.15-8.301c-.891-.483-1.676-.424-2.156.064l12.926 12.46 4.38-4.223z" fill="#000"/><path d="M49.174 10.244c0 .835-.26 1.504-.77 2.002-.588.591-1.352.889-2.29.889-.895 0-1.66-.303-2.287-.899-.63-.605-.943-1.347-.943-2.236 0-.889.314-1.631.943-2.231.627-.601 1.392-.904 2.287-.904.446 0 .872.089 1.277.254.405.166.734.391.973.669l-.542.527c-.416-.474-.983-.707-1.708-.707-.653 0-1.22.22-1.7.663-.476.445-.715 1.022-.715 1.729 0 .707.239 1.289.715 1.734.48.438 1.047.664 1.7.664.694 0 1.277-.226 1.738-.67.303-.293.475-.698.52-1.216h-2.258V9.79h3.013c.036.156.047.308.047.454zm4.779-2.505h-2.83v1.9h2.551v.722h-2.55v1.9h2.83v.737h-3.632V7.003h3.631v.736zm3.373 5.259h-.801v-5.26h-1.736v-.736h4.274v.737h-1.737v5.259zm4.83 0V7.003h.8v5.995h-.8zm4.345 0h-.794v-5.26h-1.743v-.736h4.28v.737H66.5v5.259zm9.834-.772c-.613.606-1.373.909-2.279.909-.911 0-1.67-.303-2.284-.909-.612-.605-.916-1.347-.916-2.226s.304-1.621.916-2.226c.613-.606 1.373-.909 2.284-.909.901 0 1.66.303 2.274.914.617.61.921 1.347.921 2.221 0 .879-.304 1.621-.916 2.226zm-3.97-.502c.46.448 1.022.674 1.691.674.664 0 1.23-.226 1.687-.674.46-.449.693-1.025.693-1.724 0-.699-.233-1.275-.693-1.724-.457-.448-1.023-.673-1.687-.673-.669 0-1.23.225-1.692.673-.46.449-.693 1.025-.693 1.724 0 .699.233 1.275.693 1.724zm6.01 1.274V7.003h.973l3.023 4.662h.035l-.035-1.152v-3.51h.8v5.995h-.836L79.17 8.105h-.035l.035 1.157v3.736h-.795z" fill="#000" stroke="#000" stroke-width=".16" stroke-miterlimit="10"/><path d="M70.659 21.753c-2.436 0-4.426 1.787-4.426 4.253 0 2.447 1.99 4.253 4.425 4.253 2.441 0 4.431-1.806 4.431-4.253 0-2.466-1.99-4.253-4.43-4.253zm0 6.83c-1.337 0-2.487-1.063-2.487-2.577 0-1.534 1.15-2.579 2.487-2.579 1.336 0 2.491 1.046 2.491 2.58 0 1.513-1.155 2.577-2.492 2.577zm-9.657-6.83c-2.44 0-4.425 1.787-4.425 4.253 0 2.447 1.985 4.253 4.425 4.253 2.44 0 4.426-1.806 4.426-4.253 0-2.466-1.986-4.253-4.426-4.253zm0 6.83c-1.337 0-2.491-1.063-2.491-2.577 0-1.534 1.154-2.579 2.491-2.579 1.337 0 2.487 1.046 2.487 2.58 0 1.513-1.15 2.577-2.487 2.577zm-11.49-5.527v1.808h4.476c-.13 1.01-.48 1.752-1.017 2.27-.654.625-1.671 1.319-3.459 1.319-2.755 0-4.912-2.144-4.912-4.8 0-2.657 2.157-4.8 4.912-4.8 1.49 0 2.573.56 3.373 1.288l1.32-1.273c-1.118-1.03-2.606-1.822-4.693-1.822-3.777 0-6.952 2.964-6.952 6.607 0 3.642 3.175 6.606 6.952 6.606 2.042 0 3.575-.645 4.78-1.855 1.236-1.192 1.621-2.866 1.621-4.219 0-.42-.036-.806-.101-1.129h-6.3zm46.986 1.401c-.365-.95-1.489-2.704-3.778-2.704-2.268 0-4.157 1.723-4.157 4.253 0 2.383 1.87 4.253 4.375 4.253a4.41 4.41 0 003.676-1.885l-1.504-.966c-.501.707-1.184 1.176-2.172 1.176-.981 0-1.685-.434-2.136-1.289l5.9-2.354-.204-.483zm-6.015 1.417c-.05-1.64 1.32-2.48 2.303-2.48.77 0 1.424.371 1.641.902l-3.944 1.578zM85.688 30h1.939V17.5h-1.94V30zm-3.176-7.3h-.065c-.436-.497-1.267-.947-2.32-.947-2.208 0-4.228 1.87-4.228 4.267 0 2.384 2.02 4.239 4.229 4.239 1.052 0 1.883-.454 2.319-.966h.065v.61c0 1.626-.901 2.5-2.354 2.5-1.185 0-1.92-.825-2.223-1.52l-1.687.68a4.207 4.207 0 003.91 2.515c2.273 0 4.192-1.29 4.192-4.43v-7.637h-1.838v.689zm-2.218 5.884c-1.337 0-2.455-1.079-2.455-2.564 0-1.499 1.118-2.593 2.455-2.593 1.317 0 2.355 1.094 2.355 2.593 0 1.485-1.038 2.564-2.355 2.564zM105.577 17.5h-4.638V30h1.934v-4.736h2.704c2.148 0 4.254-1.499 4.254-3.883 0-2.382-2.111-3.881-4.254-3.881zm.05 6.025h-2.754v-4.286h2.754c1.444 0 2.269 1.156 2.269 2.142 0 .968-.825 2.144-2.269 2.144zm11.956-1.796c-1.397 0-2.85.595-3.448 1.913l1.716.694c.37-.694 1.049-.918 1.767-.918 1.003 0 2.021.58 2.037 1.607v.131c-.35-.195-1.1-.483-2.021-.483-1.849 0-3.732.98-3.732 2.812 0 1.675 1.514 2.754 3.216 2.754 1.301 0 2.019-.567 2.47-1.225h.067v.966h1.868v-4.795c0-2.216-1.717-3.456-3.94-3.456zm-.233 6.85c-.633 0-1.514-.303-1.514-1.059 0-.968 1.099-1.339 2.05-1.339.852 0 1.251.181 1.769.42-.152 1.158-1.185 1.978-2.305 1.978zm10.978-6.576l-2.223 5.418h-.066l-2.298-5.418h-2.086l3.453 7.572-1.97 4.214h2.021l5.321-11.787h-2.152zM110.894 30h1.939V17.5h-1.939V30z" fill="#000"/></svg><svg width="115" height="26" fill="none" viewBox="-4 -4 115 26" id="logo" y="122" xmlns="http://www.w3.org/2000/svg"><path fill-rule="evenodd" clip-rule="evenodd" d="M44.84 10.044c1.871.689 2.95 1.085 2.95 2.856 0 1.625-1.153 2.675-2.98 2.675-1.829 0-3.13-1.1-3.13-2.925v-.25h-2.655c0 3.55 2.53 5.6 5.785 5.6 3.305 0 5.633-2.425 5.633-5.2 0-1.425-.45-2.325-1.201-3.125-.752-.8-1.678-1.3-3.23-1.875l-1.002-.375c-2.204-.825-2.905-1.45-2.905-2.7 0-1.425 1.052-2.3 2.68-2.3 1.602 0 2.729.875 2.729 2.475v.325h2.654c0-3.2-2.028-5.225-5.384-5.225-3.656 0-5.333 2.525-5.333 4.775 0 1.25.4 2.15 1.052 2.95.65.8 1.552 1.275 2.879 1.775l1.202.45.256.095zM15.575.25l-6.31 10.175L2.98.25H0v17.5h2.504V3.95l5.609 9.075h2.304L16.05 3.95v13.8h2.504V.25h-2.98zm17.927 10.175V.25h2.529V10.4c0 4.775-2.73 7.6-6.836 7.6-4.107 0-6.836-2.825-6.836-7.6V.25h2.529v10.175c0 3.175 1.653 5.125 4.307 5.125 2.654 0 4.307-1.95 4.307-5.125zm20.13 7.325h2.553V.25h-2.554v17.5zm8.939 0V4.2l9.114 13.55h2.805V.25h-2.504v13.625L62.846.25h-2.78v17.5h2.505zm23.678-4.85c0-1.77-1.078-2.167-2.949-2.855l-.256-.095-1.202-.45c-1.327-.5-2.229-.975-2.88-1.775-.65-.8-1.052-1.7-1.052-2.95C77.91 2.525 79.588 0 83.244 0c3.356 0 5.384 2.025 5.384 5.225h-2.654V4.9c0-1.6-1.127-2.475-2.73-2.475-1.627 0-2.68.875-2.68 2.3 0 1.25.702 1.875 2.906 2.7l1.001.375c1.552.575 2.48 1.075 3.23 1.875.751.8 1.202 1.7 1.202 3.125 0 2.775-2.329 5.2-5.634 5.2-3.255 0-5.784-2.05-5.784-5.6h2.654v.25c0 1.825 1.302 2.925 3.13 2.925 1.828 0 2.98-1.05 2.98-2.675zm16.194-.025H94.63l-1.978 4.875h-2.579L97.16.25h2.754L107 17.75h-2.579l-1.978-4.875zM98.537 3.25l-2.905 7.15h5.809l-2.904-7.15z" fill="#0A0F18"/></svg><svg width="32" height="32" fill="none" viewBox="-4 -4 32 32" id="top" x="148" y="32" xmlns="http://www.w3.org/2000/svg"><path d="M4.8 15.2L12 8l7.2 7.2" stroke="#fff" stroke-width="2" stroke-linecap="square"/></svg></svg>