<svg width="138" height="65" xmlns="http://www.w3.org/2000/svg" xmlns:xlink="http://www.w3.org/1999/xlink"><svg width="35" height="35" fill="none" viewBox="-4 -4 35 35" id="arrow-down" y="30" xmlns="http://www.w3.org/2000/svg"><path d="M15 20l-8-8 8-8" stroke="#0A0F18" stroke-width="1.2" stroke-linecap="square"/></svg><svg width="26" height="26" fill="none" viewBox="-4 -4 26 26" id="arrow-sm" x="99" y="30" xmlns="http://www.w3.org/2000/svg"><path d="M3.246 11.046l-.353.354.707.707.354-.353-.708-.708zM9 6l.354-.354L9 5.293l-.354.353L9 6zm5.046 5.754l.354.353.707-.707-.353-.354-.708.708zm-10.092 0l5.4-5.4-.708-.708-5.4 5.4.708.708zm4.692-5.4l5.4 5.4.708-.708-5.4-5.4-.708.708z" fill="#0A0F18"/></svg><svg width="32" height="32" fill="none" viewBox="-4 -4 32 32" id="back" x="35" y="30" xmlns="http://www.w3.org/2000/svg"><path d="M15 20l-8-8 8-8" stroke="#0A0F18" stroke-width="2" stroke-linecap="square"/></svg><svg width="138" height="30" viewBox="-4 -4 115 26" fill="none" id="logo" xmlns="http://www.w3.org/2000/svg"><path fill-rule="evenodd" clip-rule="evenodd" d="M44.84 10.044c1.871.689 2.95 1.085 2.95 2.856 0 1.625-1.153 2.675-2.98 2.675-1.829 0-3.13-1.1-3.13-2.925v-.25h-2.655c0 3.55 2.53 5.6 5.785 5.6 3.305 0 5.633-2.425 5.633-5.2 0-1.425-.45-2.325-1.201-3.125-.752-.8-1.678-1.3-3.23-1.875l-1.002-.375c-2.204-.825-2.905-1.45-2.905-2.7 0-1.425 1.052-2.3 2.68-2.3 1.602 0 2.729.875 2.729 2.475v.325h2.654c0-3.2-2.028-5.225-5.384-5.225-3.656 0-5.333 2.525-5.333 4.775 0 1.25.4 2.15 1.052 2.95.65.8 1.552 1.275 2.879 1.775l1.202.45.256.095zM15.575.25l-6.31 10.175L2.98.25H0v17.5h2.504V3.95l5.609 9.075h2.304L16.05 3.95v13.8h2.504V.25h-2.98zm17.927 10.175V.25h2.529V10.4c0 4.775-2.73 7.6-6.836 7.6-4.107 0-6.836-2.825-6.836-7.6V.25h2.529v10.175c0 3.175 1.653 5.125 4.307 5.125 2.654 0 4.307-1.95 4.307-5.125zm20.13 7.325h2.553V.25h-2.554v17.5zm8.939 0V4.2l9.114 13.55h2.805V.25h-2.504v13.625L62.846.25h-2.78v17.5h2.505zm23.678-4.85c0-1.77-1.078-2.167-2.949-2.855l-.256-.095-1.202-.45c-1.327-.5-2.229-.975-2.88-1.775-.65-.8-1.052-1.7-1.052-2.95C77.91 2.525 79.588 0 83.244 0c3.356 0 5.384 2.025 5.384 5.225h-2.654V4.9c0-1.6-1.127-2.475-2.73-2.475-1.627 0-2.68.875-2.68 2.3 0 1.25.702 1.875 2.906 2.7l1.001.375c1.552.575 2.48 1.075 3.23 1.875.751.8 1.202 1.7 1.202 3.125 0 2.775-2.329 5.2-5.634 5.2-3.255 0-5.784-2.05-5.784-5.6h2.654v.25c0 1.825 1.302 2.925 3.13 2.925 1.828 0 2.98-1.05 2.98-2.675zm16.194-.025H94.63l-1.978 4.875h-2.579L97.16.25h2.754L107 17.75h-2.579l-1.978-4.875zM98.537 3.25l-2.905 7.15h5.809l-2.904-7.15z" fill="#0A0F18"/></svg><svg width="32" height="32" fill="none" viewBox="-4 -4 32 32" id="top" x="67" y="30" xmlns="http://www.w3.org/2000/svg"><path d="M4.8 15.2L12 8l7.2 7.2" stroke="#fff" stroke-width="2" stroke-linecap="square"/></svg></svg>