<svg width="140" height="40" fill="none" xmlns="http://www.w3.org/2000/svg">
	<title>App Store</title>
	<path d="M139.222 35.387c0 2.132-1.782 3.858-3.986 3.858H4.77c-2.204 0-3.992-1.726-3.992-3.858V4.618C.778 2.488 2.566.755 4.77.755h130.464c2.206 0 3.987 1.732 3.987 3.863l.001 30.769z" fill="#fff"></path>
	<path d="M134.815.801c2.401 0 4.354 1.884 4.354 4.199v30c0 2.315-1.953 4.199-4.354 4.199H5.185c-2.4 0-4.354-1.884-4.354-4.199V5C.83 2.685 2.784.801 5.185.801h129.63zm0-.801H5.185C2.335 0 0 2.251 0 5v30c0 2.749 2.335 5 5.185 5h129.63c2.85 0 5.185-2.251 5.185-5V5c0-2.749-2.335-5-5.185-5z" fill="#A6A6A6"></path>
	<path d="M31.244 19.784c-.03-3.223 2.737-4.791 2.863-4.864-1.567-2.203-3.996-2.504-4.85-2.528-2.039-.207-4.018 1.177-5.057 1.177-1.06 0-2.66-1.157-4.384-1.123-2.22.033-4.296 1.272-5.434 3.196-2.35 3.923-.598 9.688 1.654 12.859 1.126 1.553 2.442 3.287 4.165 3.226 1.685-.067 2.314-1.036 4.348-1.036 2.015 0 2.606 1.036 4.363.997 1.808-.028 2.947-1.56 4.034-3.127 1.301-1.78 1.824-3.533 1.845-3.623-.043-.014-3.513-1.291-3.547-5.154zM27.925 10.306c.907-1.093 1.527-2.58 1.355-4.089-1.312.056-2.953.875-3.898 1.944-.835.942-1.582 2.486-1.39 3.938 1.474.106 2.988-.717 3.933-1.793zM50.867 10.009c0 1.177-.366 2.063-1.097 2.658-.678.549-1.64.824-2.887.824-.618 0-1.147-.026-1.59-.078V6.982c.578-.09 1.2-.136 1.873-.136 1.187 0 2.082.249 2.685.747.677.563 1.016 1.368 1.016 2.416zm-1.146.029c0-.763-.21-1.348-.629-1.756-.419-.407-1.03-.611-1.836-.611-.343 0-.634.022-.876.068v4.889c.134.02.379.029.735.029.831 0 1.473-.223 1.925-.669.453-.446.68-1.096.68-1.95zM56.943 11.037c0 .725-.215 1.319-.644 1.785-.45.479-1.047.718-1.791.718-.718 0-1.29-.229-1.716-.689-.425-.459-.637-1.038-.637-1.736 0-.73.218-1.329.658-1.794.44-.465 1.031-.698 1.776-.698.717 0 1.294.229 1.73.688.415.446.624 1.022.624 1.726zm-1.128.034c0-.435-.097-.808-.291-1.119-.228-.376-.553-.564-.975-.564-.436 0-.768.188-.996.564-.195.311-.292.69-.292 1.138 0 .435.098.808.292 1.119.235.376.563.564.986.564.415 0 .74-.191.975-.574.2-.317.301-.693.301-1.128zM65.09 8.719l-1.53 4.714h-.995l-.634-2.047a14.873 14.873 0 01-.393-1.523h-.02a10.827 10.827 0 01-.393 1.523l-.673 2.047h-1.007l-1.438-4.714h1.117l.552 2.241c.134.53.244 1.035.332 1.513h.02c.08-.394.215-.896.403-1.503l.694-2.25h.886l.664 2.202c.161.537.292 1.054.392 1.552h.03c.074-.485.185-1.002.332-1.552l.593-2.202h1.068v-.001zM70.724 13.433h-1.087v-2.7c0-.832-.328-1.248-.985-1.248a.996.996 0 00-.785.343c-.2.229-.302.499-.302.808v2.796h-1.087v-3.366c0-.414-.013-.863-.04-1.349h.956l.05.737h.03a1.54 1.54 0 01.564-.569c.294-.176.624-.265.985-.265.456 0 .836.142 1.138.427.375.349.563.87.563 1.562v2.824zM73.72 13.433h-1.085V6.556h1.086v6.877zM80.12 11.037c0 .725-.215 1.319-.645 1.785-.45.479-1.047.718-1.79.718-.72 0-1.29-.229-1.716-.689-.425-.459-.638-1.038-.638-1.736 0-.73.22-1.329.659-1.794.44-.465 1.03-.698 1.774-.698.719 0 1.294.229 1.732.688.415.446.623 1.022.623 1.726zm-1.129.034c0-.435-.097-.808-.291-1.119-.227-.376-.553-.564-.974-.564-.438 0-.77.188-.997.564-.195.311-.291.69-.291 1.138 0 .435.097.808.291 1.119.236.376.564.564.987.564.414 0 .739-.191.973-.574.203-.317.302-.693.302-1.128zM85.38 13.433h-.977l-.08-.543h-.03c-.335.433-.81.65-1.428.65-.462 0-.835-.143-1.116-.427a1.313 1.313 0 01-.383-.96c0-.576.249-1.015.75-1.319.5-.304 1.203-.453 2.108-.446V10.3c0-.621-.338-.931-1.015-.931-.483 0-.908.117-1.275.349l-.22-.688c.454-.271 1.015-.407 1.676-.407 1.278 0 1.919.65 1.919 1.95v1.736c0 .471.024.846.07 1.124zm-1.129-1.62v-.727c-1.199-.02-1.798.297-1.798.95 0 .246.068.43.208.553.14.123.319.184.531.184.239 0 .462-.073.665-.218a.89.89 0 00.394-.742zM91.555 13.433h-.965l-.05-.757h-.03c-.309.576-.833.864-1.57.864-.59 0-1.08-.223-1.469-.669-.389-.446-.583-1.025-.583-1.736 0-.763.21-1.381.634-1.853.41-.44.911-.66 1.509-.66.656 0 1.115.213 1.377.64h.02V6.556h1.088v5.607c0 .459.013.882.039 1.27zm-1.126-1.988v-.786c0-.136-.01-.246-.03-.33a1.185 1.185 0 00-.394-.635 1.092 1.092 0 00-.727-.257c-.405 0-.722.155-.956.466-.23.311-.348.708-.348 1.193 0 .466.11.844.334 1.135.235.31.553.465.95.465.357 0 .642-.129.859-.388.209-.239.312-.527.312-.863zM100.85 11.037c0 .725-.215 1.319-.644 1.785-.45.479-1.046.718-1.791.718-.717 0-1.288-.229-1.715-.689-.426-.459-.638-1.038-.638-1.736 0-.73.219-1.329.658-1.794.44-.465 1.031-.698 1.777-.698.716 0 1.294.229 1.73.688.414.446.623 1.022.623 1.726zm-1.126.034c0-.435-.098-.808-.292-1.119-.229-.376-.553-.564-.976-.564-.435 0-.767.188-.996.564-.195.311-.292.69-.292 1.138 0 .435.098.808.292 1.119.235.376.563.564.986.564.415 0 .741-.191.976-.574.2-.317.302-.693.302-1.128zM106.693 13.433h-1.085v-2.7c0-.832-.328-1.248-.987-1.248a.995.995 0 00-.784.343 1.186 1.186 0 00-.301.808v2.796h-1.088v-3.366c0-.414-.013-.863-.038-1.349h.954l.05.737h.03a1.56 1.56 0 01.564-.569 1.89 1.89 0 01.986-.265c.455 0 .835.142 1.136.427.377.349.563.87.563 1.562v2.824zM114.008 9.504h-1.197v2.29c0 .582.213.873.634.873.195 0 .356-.016.484-.049l.028.795c-.215.078-.497.117-.844.117-.43 0-.764-.126-1.005-.378-.243-.252-.363-.676-.363-1.271V9.504h-.715v-.785h.715v-.864l1.065-.31v1.173h1.197v.786h.001zM119.761 13.433h-1.088v-2.68c0-.845-.327-1.268-.984-1.268-.504 0-.848.245-1.037.735a1.277 1.277 0 00-.051.377v2.835h-1.085V6.556h1.085v2.841h.021c.342-.517.833-.775 1.469-.775.45 0 .822.142 1.117.427.369.355.553.883.553 1.581v2.803zM125.696 10.853c0 .188-.014.346-.04.475h-3.26c.015.466.17.821.472 1.067.276.22.632.33 1.067.33a3.72 3.72 0 001.318-.223l.17.728c-.463.194-1.009.291-1.64.291-.757 0-1.354-.215-1.785-.645-.433-.43-.648-1.007-.648-1.731 0-.711.2-1.303.603-1.775.422-.504.991-.756 1.71-.756.703 0 1.237.252 1.598.756.291.4.435.895.435 1.483zm-1.037-.271a1.376 1.376 0 00-.21-.805c-.189-.291-.476-.437-.865-.437-.355 0-.644.142-.865.427a1.556 1.556 0 00-.323.815h2.263zM55.632 31.504h-2.355l-1.29-3.909h-4.485l-1.228 3.909H43.98l4.442-13.308h2.744l4.465 13.308zm-4.034-5.549L50.43 22.48c-.123-.355-.355-1.191-.696-2.507h-.041a94.267 94.267 0 01-.656 2.507l-1.146 3.475h3.706zM67.057 26.588c0 1.632-.457 2.922-1.372 3.869-.82.843-1.837 1.264-3.051 1.264-1.31 0-2.252-.454-2.826-1.362h-.041v5.055h-2.211V25.067c0-1.026-.028-2.079-.082-3.159h1.944l.123 1.521h.042c.737-1.146 1.856-1.718 3.358-1.718 1.174 0 2.154.447 2.938 1.342.786.896 1.178 2.074 1.178 3.535zm-2.253.078c0-.934-.217-1.704-.655-2.31-.478-.632-1.12-.948-1.925-.948-.545 0-1.04.176-1.484.523-.444.35-.734.807-.87 1.373a2.7 2.7 0 00-.102.65v1.6c0 .698.221 1.287.665 1.768.444.481 1.02.721 1.73.721.833 0 1.481-.31 1.945-.928.464-.619.696-1.435.696-2.449zM78.503 26.588c0 1.632-.458 2.922-1.373 3.869-.819.843-1.836 1.264-3.05 1.264-1.311 0-2.253-.454-2.825-1.362h-.042v5.055h-2.21V25.067c0-1.026-.029-2.079-.083-3.159h1.945l.123 1.521h.042c.736-1.146 1.855-1.718 3.358-1.718 1.173 0 2.153.447 2.939 1.342.783.896 1.176 2.074 1.176 3.535zm-2.253.078c0-.934-.219-1.704-.656-2.31-.478-.632-1.118-.948-1.924-.948-.546 0-1.041.176-1.485.523-.444.35-.733.807-.869 1.373-.067.264-.103.48-.103.65v1.6c0 .698.222 1.287.664 1.768.444.48 1.02.721 1.732.721.833 0 1.48-.31 1.944-.928.465-.619.697-1.435.697-2.449zM91.3 27.772c0 1.132-.408 2.053-1.226 2.764-.9.777-2.15 1.165-3.76 1.165-1.484 0-2.675-.276-3.576-.829l.512-1.777c.97.566 2.036.85 3.196.85.833 0 1.481-.182 1.947-.544.463-.362.695-.848.695-1.454 0-.54-.191-.995-.574-1.364-.38-.369-1.016-.712-1.904-1.029-2.416-.869-3.623-2.142-3.623-3.816 0-1.094.423-1.991 1.27-2.689.844-.699 1.97-1.048 3.379-1.048 1.256 0 2.299.211 3.132.632l-.553 1.738c-.778-.408-1.657-.612-2.641-.612-.778 0-1.386.185-1.821.553-.368.329-.553.73-.553 1.205 0 .526.21.961.633 1.303.369.316 1.038.658 2.008 1.027 1.188.461 2.06 1 2.62 1.618.56.616.839 1.387.839 2.307zM98.61 23.508h-2.437v4.659c0 1.185.43 1.777 1.29 1.777.395 0 .723-.033.982-.099l.061 1.619c-.436.157-1.009.236-1.72.236-.873 0-1.555-.257-2.047-.77-.491-.514-.738-1.376-.738-2.587v-4.837H92.55v-1.6h1.452v-1.757l2.172-.632v2.389h2.437v1.602zM109.605 26.627c0 1.475-.437 2.686-1.31 3.633-.916.975-2.131 1.461-3.647 1.461-1.46 0-2.622-.467-3.489-1.401-.867-.934-1.3-2.113-1.3-3.534 0-1.487.445-2.705 1.34-3.652.893-.948 2.098-1.422 3.613-1.422 1.46 0 2.635.467 3.522 1.402.848.907 1.271 2.078 1.271 3.513zm-2.293.069c0-.885-.196-1.644-.594-2.277-.463-.766-1.126-1.148-1.985-1.148-.888 0-1.563.383-2.027 1.148-.397.634-.593 1.405-.593 2.317 0 .885.196 1.644.593 2.276.478.766 1.146 1.148 2.008 1.148.844 0 1.507-.39 1.985-1.168.407-.645.613-1.412.613-2.296zM116.792 23.783a3.978 3.978 0 00-.697-.059c-.778 0-1.379.283-1.802.85-.368.5-.553 1.132-.553 1.895v5.035h-2.21l.021-6.574c0-1.106-.028-2.113-.083-3.021h1.926l.081 1.836h.061a3.282 3.282 0 011.105-1.52 2.741 2.741 0 011.598-.514c.205 0 .389.014.553.039v2.033zM126.68 26.252c0 .382-.026.704-.081.967h-6.632c.025.948.346 1.673.962 2.173.559.447 1.282.671 2.169.671.982 0 1.878-.151 2.684-.454l.347 1.48c-.942.396-2.054.593-3.337.593-1.543 0-2.754-.438-3.635-1.313-.88-.875-1.321-2.05-1.321-3.524 0-1.447.41-2.652 1.23-3.613.859-1.026 2.019-1.539 3.48-1.539 1.434 0 2.52.513 3.257 1.539.584.815.877 1.823.877 3.02zm-2.108-.553c.015-.632-.13-1.178-.429-1.639-.383-.593-.971-.889-1.762-.889-.723 0-1.311.289-1.76.869-.368.461-.587 1.014-.654 1.658h4.605v.001z" fill="#000"></path>
</svg>
