<svg width="112" height="18" viewBox="0 0 112 18" fill="none" xmlns="http://www.w3.org/2000/svg">
	<title>ⓒ MUSINSA Co., Ltd.</title>
	<path fill-rule="evenodd" clip-rule="evenodd" d="M5.88913 3.7904C8.70388 3.7904 10.9932 6.09528 10.9932 8.92816C10.9932 11.7613 8.70388 14.0662 5.88913 14.0662C3.07468 14.0662 0.785326 11.7613 0.785326 8.92816C0.785326 6.09528 3.07468 3.7904 5.88913 3.7904ZM5.88912 3C2.63651 3 0 5.65434 0 8.92829C0 12.2025 2.63651 14.8566 5.88912 14.8566C9.14202 14.8566 11.7782 12.2025 11.7782 8.92829C11.7782 5.65434 9.14202 3 5.88912 3ZM6.13132 11.79C5.72776 11.79 5.35386 11.7159 5.00845 11.5687C4.66246 11.4209 4.36444 11.2195 4.11294 10.9637C3.86173 10.7082 3.66577 10.4067 3.52388 10.0587C3.38316 9.71074 3.31222 9.33962 3.31222 8.94421V8.9284C3.31222 8.53328 3.38316 8.16304 3.52388 7.81796C3.66577 7.47289 3.86173 7.16967 4.11294 6.90889C4.36444 6.64811 4.66507 6.44235 5.01601 6.2925C5.36694 6.14235 5.75393 6.06714 6.17813 6.06714C6.43457 6.06714 6.66891 6.08821 6.88087 6.13035C7.09283 6.1725 7.2853 6.23045 7.45801 6.30421C7.63042 6.37796 7.79062 6.46753 7.93716 6.57289C8.0837 6.67826 8.21977 6.79445 8.34508 6.9206L7.57605 7.81416C7.3609 7.61923 7.14283 7.46616 6.92041 7.35553C6.69741 7.24489 6.44765 7.18957 6.17028 7.18957C5.94001 7.18957 5.7266 7.23435 5.53063 7.32392C5.33409 7.41348 5.16516 7.53728 5.02386 7.69533C4.88255 7.85338 4.77265 8.0366 4.69444 8.2447C4.61565 8.45309 4.57581 8.67553 4.57581 8.9126V8.9284C4.57581 9.16577 4.61565 9.38967 4.69444 9.6004C4.77265 9.81113 4.88139 9.99553 5.02008 10.1536C5.15818 10.3116 5.32594 10.4369 5.5222 10.5291C5.71875 10.6213 5.93506 10.6675 6.17028 10.6675C6.48429 10.6675 6.75003 10.6096 6.96751 10.4937C7.18441 10.3778 7.40015 10.2197 7.61501 10.0192L8.38462 10.8019C8.24361 10.9546 8.09678 11.0919 7.94443 11.2128C7.79295 11.3343 7.62693 11.4382 7.44609 11.5251C7.26553 11.612 7.06811 11.6782 6.85325 11.7226C6.63897 11.7674 6.39823 11.79 6.13132 11.79ZM25.1865 4.86374H23.8139L20.9067 9.59028L18.0111 4.86374H16.6385V12.9927H17.7919V6.58238L20.3761 10.7979H21.4373L24.0331 6.58238V12.9927H25.1865V4.86374ZM32.0727 9.59059V4.86434H33.2383V9.57888C33.2383 11.7971 31.9808 13.1089 30.0886 13.1089C28.197 13.1089 26.9395 11.7971 26.9395 9.57888V4.86434H28.1046V9.59059C28.1046 11.0654 28.866 11.9713 30.0886 11.9713C31.3115 11.9713 32.0727 11.0654 32.0727 9.59059ZM37.297 9.41369C38.1585 9.73328 38.6549 9.91741 38.6549 10.7401C38.6549 11.4949 38.1245 11.9825 37.2822 11.9825C36.4402 11.9825 35.8401 11.4715 35.8401 10.6239V10.5077H34.6172C34.6172 12.1569 35.7823 13.109 37.2822 13.109C38.8052 13.109 39.8778 11.9825 39.8778 10.6935C39.8778 10.0318 39.6702 9.61324 39.3242 9.24212C38.9779 8.87041 38.5514 8.63831 37.8361 8.37109L37.3747 8.19695C36.3591 7.81383 36.0361 7.52349 36.0361 6.94251C36.0361 6.28075 36.5208 5.87422 37.2706 5.87422C38.0088 5.87422 38.5281 6.28075 38.5281 7.02388V7.1749H39.751C39.751 5.68836 38.8168 4.74797 37.2706 4.74797C35.5863 4.74797 34.8132 5.92075 34.8132 6.96563C34.8132 7.54661 34.9981 7.96456 35.2979 8.33627C35.5976 8.70797 36.0131 8.92836 36.6249 9.16075L37.1787 9.36973L37.297 9.41369ZM41.3466 12.9929H42.5232V4.86394H41.3466V12.9929ZM45.4651 12.9928V6.69868L49.6638 12.9928H50.9561V4.86385H49.8024V11.1925L45.5918 4.86385H44.3111V12.9928H45.4651ZM56.3735 10.7401C56.3735 9.91745 55.8769 9.73329 55.0153 9.41373L54.8968 9.36973L54.3432 9.16075C53.7318 8.92836 53.3166 8.70797 53.0165 8.33627C52.7165 7.96456 52.5319 7.54661 52.5319 6.96563C52.5319 5.92075 53.305 4.74797 54.9893 4.74797C56.5352 4.74797 57.4696 5.68836 57.4696 7.1749H56.2468V7.02388C56.2468 6.28075 55.7275 5.87422 54.9893 5.87422C54.2394 5.87422 53.7547 6.28075 53.7547 6.94251C53.7547 7.52349 54.0778 7.81383 55.0931 8.19695L55.5545 8.37109C56.27 8.63831 56.6965 8.87041 57.0425 9.24212C57.3888 9.61324 57.5964 10.0318 57.5964 10.6935C57.5964 11.9825 56.5235 13.109 55.0009 13.109C53.5009 13.109 52.3359 12.1569 52.3359 10.5077H53.5588V10.6239C53.5588 11.4715 54.1586 11.9825 55.0009 11.9825C55.8429 11.9825 56.3735 11.4949 56.3735 10.7401ZM60.696 9.57907L62.0346 6.25741L63.3726 9.57907H60.696ZM60.2348 10.7282H63.834L64.7455 12.9929H65.9338L62.669 4.86368H61.3999L58.1353 12.9929H59.3236L60.2348 10.7282Z" fill="#cbcbcb"></path>
	<path d="M74.092 12.628C75.04 12.628 75.772 12.412 76.312 12.1V11.296C75.808 11.548 75.208 11.824 74.212 11.824C72.364 11.824 71.596 10.624 71.596 8.56V8.164C71.596 6.028 72.676 5.116 74.2 5.116C74.992 5.116 75.592 5.296 76.228 5.548V4.756C75.736 4.492 75.112 4.312 74.248 4.312C72.196 4.312 70.588 5.44 70.588 8.32V8.56C70.588 11.284 71.92 12.628 74.092 12.628ZM80.0358 12.604C81.6438 12.604 82.7478 11.476 82.7478 9.58V9.412C82.7478 7.528 81.7278 6.436 80.0478 6.436C78.4398 6.436 77.3478 7.564 77.3478 9.448V9.628C77.3478 11.524 78.3558 12.604 80.0358 12.604ZM80.0598 11.848C79.0638 11.848 78.2838 11.308 78.2838 9.652V9.352C78.2838 7.96 78.9558 7.192 80.0358 7.192C81.0078 7.192 81.8118 7.732 81.8118 9.388V9.688C81.8118 11.092 81.1398 11.848 80.0598 11.848ZM83.7579 12.796H84.8019V11.728H83.7579V12.796ZM86.1889 14.056H86.8369L87.7249 11.716H86.6329L86.1889 14.056ZM92.8523 12.496H97.4483V11.692H93.8123V4.444H92.8523V12.496ZM100.639 12.568C101.155 12.568 101.407 12.436 101.647 12.328V11.704C101.407 11.776 101.131 11.812 100.879 11.812C100.195 11.812 100.003 11.584 100.003 11.008V7.312H101.527V6.556H100.003V5.14H99.0909V6.556H98.2389V7.312H99.0909V11.152C99.0909 12.16 99.7029 12.568 100.639 12.568ZM105.074 12.604C105.878 12.604 106.454 12.352 106.814 12.004H106.862L106.97 12.496H107.738V3.904H106.814V6.832C106.49 6.64 105.986 6.436 105.254 6.436C103.718 6.436 102.602 7.372 102.602 9.532V9.688C102.602 11.884 103.886 12.604 105.074 12.604ZM105.35 11.848C104.282 11.848 103.562 11.32 103.562 9.652V9.412C103.562 7.804 104.246 7.216 105.374 7.216C105.986 7.216 106.538 7.384 106.814 7.6V11.344C106.514 11.584 106.046 11.848 105.35 11.848ZM109.117 12.796H110.161V11.728H109.117V12.796Z" fill="#cbcbcb"></path>
</svg>
