<svg width="140" height="40" fill="none" xmlns="http://www.w3.org/2000/svg">
	<title>Google Play</title>
	<path d="M134.815 40H5.185C2.335 40 0 37.749 0 35V5c0-2.749 2.335-5 5.185-5h129.63C137.665 0 140 2.251 140 5v30c0 2.749-2.335 5-5.185 5z" fill="#fff"></path>
	<path d="M134.815.801c2.401 0 4.354 1.884 4.354 4.199v30c0 2.315-1.953 4.199-4.354 4.199H5.185c-2.4 0-4.354-1.884-4.354-4.199V5C.83 2.685 2.784.801 5.185.801h129.63zm0-.801H5.185C2.335 0 0 2.251 0 5v30c0 2.749 2.335 5 5.185 5h129.63c2.85 0 5.185-2.251 5.185-5V5c0-2.749-2.335-5-5.185-5z" fill="#A6A6A6"></path>
	<path d="M10.044 7.539c-.305.307-.481.786-.481 1.406V31.06c0 .62.176 1.099.48 1.406l.076.068L22.97 20.146v-.292L10.12 7.466l-.075.073zM28.805 24.277l-4.28-4.13v-.293l4.285-4.131.096.053 5.074 2.784c1.448.79 1.448 2.09 0 2.885l-5.074 2.779-.101.053zM28.128 24.993l-4.38-4.224-12.927 12.467c.481.487 1.266.546 2.158.058l15.15-8.301zM28.128 15.007l-15.15-8.301c-.891-.483-1.676-.424-2.156.064l12.926 12.46 4.38-4.223z" fill="#000"></path>
	<path d="M49.174 10.244c0 .835-.26 1.504-.77 2.002-.588.591-1.352.889-2.29.889-.895 0-1.66-.303-2.287-.899-.63-.605-.943-1.347-.943-2.236 0-.889.314-1.631.943-2.231.627-.601 1.392-.904 2.287-.904.446 0 .872.089 1.277.254.405.166.734.391.973.669l-.542.527c-.416-.474-.983-.707-1.708-.707-.653 0-1.22.22-1.7.663-.476.445-.715 1.022-.715 1.729 0 .707.239 1.289.715 1.734.48.438 1.047.664 1.7.664.694 0 1.277-.226 1.738-.67.303-.293.475-.698.52-1.216h-2.258V9.79h3.013c.036.156.047.308.047.454zM53.953 7.739h-2.83v1.9h2.551v.722h-2.55v1.9h2.83v.737h-3.632V7.003h3.631v.736zM57.326 12.998h-.801v-5.26h-1.736v-.736h4.274v.737h-1.737v5.259zM62.156 12.998V7.003h.8v5.995h-.8zM66.501 12.998h-.794v-5.26h-1.743v-.736h4.28v.737H66.5v5.259zM76.335 12.226c-.613.606-1.373.909-2.279.909-.911 0-1.67-.303-2.284-.909-.612-.605-.916-1.347-.916-2.226s.304-1.621.916-2.226c.613-.606 1.373-.909 2.284-.909.901 0 1.66.303 2.274.914.617.61.921 1.347.921 2.221 0 .879-.304 1.621-.916 2.226zm-3.97-.502c.46.448 1.022.674 1.691.674.664 0 1.23-.226 1.687-.674.46-.449.693-1.025.693-1.724 0-.699-.233-1.275-.693-1.724-.457-.448-1.023-.673-1.687-.673-.669 0-1.23.225-1.692.673-.46.449-.693 1.025-.693 1.724 0 .699.233 1.275.693 1.724zM78.375 12.998V7.003h.973l3.023 4.662h.035l-.035-1.152v-3.51h.8v5.995h-.836L79.17 8.105h-.035l.035 1.157v3.736h-.795z" fill="#000" stroke="#000" stroke-width=".16" stroke-miterlimit="10"></path>
	<path d="M70.659 21.753c-2.436 0-4.426 1.787-4.426 4.253 0 2.447 1.99 4.253 4.425 4.253 2.441 0 4.431-1.806 4.431-4.253 0-2.466-1.99-4.253-4.43-4.253zm0 6.83c-1.337 0-2.487-1.063-2.487-2.577 0-1.534 1.15-2.579 2.487-2.579 1.336 0 2.491 1.046 2.491 2.58 0 1.513-1.155 2.577-2.492 2.577zm-9.657-6.83c-2.44 0-4.425 1.787-4.425 4.253 0 2.447 1.985 4.253 4.425 4.253 2.44 0 4.426-1.806 4.426-4.253 0-2.466-1.986-4.253-4.426-4.253zm0 6.83c-1.337 0-2.491-1.063-2.491-2.577 0-1.534 1.154-2.579 2.491-2.579 1.337 0 2.487 1.046 2.487 2.58 0 1.513-1.15 2.577-2.487 2.577zm-11.49-5.527v1.808h4.476c-.13 1.01-.48 1.752-1.017 2.27-.654.625-1.671 1.319-3.459 1.319-2.755 0-4.912-2.144-4.912-4.8 0-2.657 2.157-4.8 4.912-4.8 1.49 0 2.573.56 3.373 1.288l1.32-1.273c-1.118-1.03-2.606-1.822-4.693-1.822-3.777 0-6.952 2.964-6.952 6.607 0 3.642 3.175 6.606 6.952 6.606 2.042 0 3.575-.645 4.78-1.855 1.236-1.192 1.621-2.866 1.621-4.219 0-.42-.036-.806-.101-1.129h-6.3zm46.986 1.401c-.365-.95-1.489-2.704-3.778-2.704-2.268 0-4.157 1.723-4.157 4.253 0 2.383 1.87 4.253 4.375 4.253a4.41 4.41 0 003.676-1.885l-1.504-.966c-.501.707-1.184 1.176-2.172 1.176-.981 0-1.685-.434-2.136-1.289l5.9-2.354-.204-.483zm-6.015 1.417c-.05-1.64 1.32-2.48 2.303-2.48.77 0 1.424.371 1.641.902l-3.944 1.578zM85.688 30h1.939V17.5h-1.94V30zm-3.176-7.3h-.065c-.436-.497-1.267-.947-2.32-.947-2.208 0-4.228 1.87-4.228 4.267 0 2.384 2.02 4.239 4.229 4.239 1.052 0 1.883-.454 2.319-.966h.065v.61c0 1.626-.901 2.5-2.354 2.5-1.185 0-1.92-.825-2.223-1.52l-1.687.68a4.207 4.207 0 003.91 2.515c2.273 0 4.192-1.29 4.192-4.43v-7.637h-1.838v.689zm-2.218 5.884c-1.337 0-2.455-1.079-2.455-2.564 0-1.499 1.118-2.593 2.455-2.593 1.317 0 2.355 1.094 2.355 2.593 0 1.485-1.038 2.564-2.355 2.564zM105.577 17.5h-4.638V30h1.934v-4.736h2.704c2.148 0 4.254-1.499 4.254-3.883 0-2.382-2.111-3.881-4.254-3.881zm.05 6.025h-2.754v-4.286h2.754c1.444 0 2.269 1.156 2.269 2.142 0 .968-.825 2.144-2.269 2.144zm11.956-1.796c-1.397 0-2.85.595-3.448 1.913l1.716.694c.37-.694 1.049-.918 1.767-.918 1.003 0 2.021.58 2.037 1.607v.131c-.35-.195-1.1-.483-2.021-.483-1.849 0-3.732.98-3.732 2.812 0 1.675 1.514 2.754 3.216 2.754 1.301 0 2.019-.567 2.47-1.225h.067v.966h1.868v-4.795c0-2.216-1.717-3.456-3.94-3.456zm-.233 6.85c-.633 0-1.514-.303-1.514-1.059 0-.968 1.099-1.339 2.05-1.339.852 0 1.251.181 1.769.42-.152 1.158-1.185 1.978-2.305 1.978zm10.978-6.576l-2.223 5.418h-.066l-2.298-5.418h-2.086l3.453 7.572-1.97 4.214h2.021l5.321-11.787h-2.152zM110.894 30h1.939V17.5h-1.939V30z" fill="#000"></path>
</svg>
