<svg width="130" height="22" viewBox="0 0 107 18" fill="none" xmlns="http://www.w3.org/2000/svg">
	<title>Musinsa</title>
	<path fill-rule="evenodd" clip-rule="evenodd" d="M44.8403 10.0445C46.7111 10.7328 47.7891 11.1294 47.7891 12.9C47.7891 14.5249 46.6372 15.5751 44.8095 15.5751C42.9812 15.5751 41.6792 14.4748 41.6792 12.65V12.3998H39.0252C39.0252 15.9498 41.5542 18 44.8095 18C48.1146 18 50.4433 15.5751 50.4433 12.7999C50.4433 11.375 49.9924 10.4749 49.2415 9.67488C48.4904 8.87513 47.5637 8.37517 46.0112 7.80001L45.0095 7.42528C42.8059 6.59989 42.1049 5.97518 42.1049 4.72502C42.1049 3.29982 43.1565 2.42488 44.7843 2.42488C46.3868 2.42488 47.5138 3.29982 47.5138 4.90006V5.22499H50.1677C50.1677 2.02476 48.1397 0 44.7843 0C41.1283 0 39.4507 2.52497 39.4507 4.77507C39.4507 6.02473 39.8514 6.92507 40.5026 7.72506C41.1532 8.5253 42.0548 9.00012 43.382 9.50009L44.584 9.95001L44.8403 10.0445ZM15.5748 0.249905L9.26465 10.425L2.97965 0.249905H0V17.7499H2.50383V3.9496L8.11274 13.0249H10.4166L16.0507 3.9496V17.7499H18.5545V0.249905H15.5748ZM33.5018 10.4251V0.250291H36.031V10.3997C36.031 15.1753 33.3015 18.0001 29.1949 18.0001C25.0885 18.0001 22.3592 15.1753 22.3592 10.3997V0.250291H24.888V10.4251C24.888 13.6002 26.5407 15.55 29.1949 15.55C31.8493 15.55 33.5018 13.6002 33.5018 10.4251ZM53.6313 17.7501H56.1855V0.250291H53.6313V17.7501ZM62.5707 17.7501V4.20022L71.6852 17.7501H74.4897V0.250291H71.9857V13.8749L62.846 0.250291H60.0666V17.7501H62.5707ZM86.2489 12.9C86.2489 11.1295 85.1707 10.7328 83.3004 10.0446L83.0438 9.95001L81.842 9.50009C80.5148 9.00012 79.6132 8.5253 78.9623 7.72506C78.3112 6.92507 77.9104 6.02473 77.9104 4.77507C77.9104 2.52497 79.5883 0 83.2443 0C86.5995 0 88.6277 2.02476 88.6277 5.22499H85.9735V4.90006C85.9735 3.29982 84.8466 2.42488 83.2443 2.42488C81.6165 2.42488 80.5649 3.29982 80.5649 4.72502C80.5649 5.97518 81.2659 6.59989 83.4695 7.42528L84.471 7.80001C86.0234 8.37517 86.9501 8.87513 87.7013 9.67488C88.4524 10.4749 88.9031 11.375 88.9031 12.7999C88.9031 15.5751 86.5743 18 83.2695 18C80.014 18 77.485 15.9498 77.485 12.3998H80.1392V12.65C80.1392 14.4748 81.4412 15.5751 83.2695 15.5751C85.097 15.5751 86.2489 14.5249 86.2489 12.9ZM102.443 12.8749H94.6305L92.6524 17.7498H90.073L97.1595 0.249765H99.914L107 17.7498H104.421L102.443 12.8749ZM98.5366 3.25017L95.6321 10.4001H101.441L98.5366 3.25017Z" fill="#0A0F18"></path>
</svg>
